<svg width="225" height="74" viewBox="0 0 225 74" fill="none" xmlns="http://www.w3.org/2000/svg">
<g clip-path="url(#clip0_31_389)">
<path d="M0.0266815 0.800446H10.9127C13.5008 0.800446 15.4753 1.41412 16.8093 2.66815C18.1434 3.92218 18.8104 5.70984 18.8104 8.03113C18.8104 9.44525 18.5436 10.6192 18.0367 11.5531C17.5297 12.4869 16.756 13.2874 15.7154 13.9277C16.756 14.1145 17.6365 14.4347 18.3835 14.8349C19.1039 15.2351 19.7176 15.7421 20.1712 16.3558C20.6248 16.9428 20.9717 17.6365 21.1584 18.3569C21.3452 19.104 21.4519 19.9044 21.4519 20.7315C21.4519 22.0389 21.2118 23.2129 20.7582 24.2268C20.3046 25.2407 19.6643 26.0945 18.8104 26.7882C17.9833 27.4819 16.9694 28.0156 15.7688 28.3624C14.5681 28.7093 13.234 28.8961 11.7399 28.8961H0V0.800446H0.0266815ZM7.33741 11.8466H8.67148C10.9661 11.8466 12.1134 10.9394 12.1134 9.12507C12.1134 7.31073 10.9661 6.40356 8.67148 6.40356H7.33741V11.8466ZM7.33741 23.2396H8.9383C10.7793 23.2396 12.0867 22.9994 12.8872 22.5192C13.6876 22.0389 14.0878 21.2918 14.0878 20.2512C14.0878 19.2107 13.6876 18.4369 12.8872 17.9833C12.0867 17.5031 10.7793 17.2629 8.9383 17.2629H7.33741V23.2396Z" fill="#FF61A9"/>
<path d="M67.5575 28.9227V0.800446H74.8683L88.3691 17.9833V0.800446H95.6531V28.9227H88.3691L74.8683 11.7399V28.9227H67.5575Z" fill="#FF61A9"/>
<path d="M119.106 0.800446V20.3046C119.106 21.1317 119.053 21.8788 118.973 22.5725C118.893 23.2663 118.733 23.8533 118.546 24.3602C118.226 25.1607 117.772 25.881 117.212 26.5481C116.651 27.2151 116.011 27.7754 115.264 28.229C114.517 28.6826 113.69 29.0561 112.783 29.323C111.875 29.5898 110.915 29.7232 109.928 29.7232C106.913 29.7232 104.458 28.3357 102.59 25.5875L107.366 20.7048C107.5 21.5586 107.767 22.2257 108.193 22.706C108.62 23.1862 109.127 23.453 109.768 23.453C111.128 23.453 111.822 22.3591 111.822 20.1979V0.800446H119.106Z" fill="#FF61A9"/>
<path d="M174.283 0.800446V16.0889C174.283 16.9161 174.31 17.7432 174.39 18.597C174.444 19.4508 174.63 20.2246 174.951 20.9183C175.271 21.612 175.751 22.1723 176.418 22.6259C177.085 23.0528 178.046 23.2663 179.246 23.2663C180.474 23.2663 181.407 23.0528 182.074 22.6259C182.742 22.199 183.222 21.6387 183.542 20.9183C183.862 20.2246 184.049 19.4508 184.129 18.597C184.182 17.7432 184.209 16.8894 184.209 16.0889V0.800446H191.493V17.1028C191.493 21.4786 190.479 24.6804 188.478 26.6815C186.477 28.6826 183.409 29.6965 179.246 29.6965C175.084 29.6965 172.016 28.6826 169.988 26.6815C167.987 24.6804 166.973 21.4786 166.973 17.1028V0.800446H174.283Z" fill="#FF61A9"/>
<path d="M224.498 28.9227H215.4L208.436 18.1167V28.9227H201.125V0.800446H212.491C214.066 0.800446 215.426 1.04058 216.6 1.49417C217.774 1.94775 218.735 2.58811 219.482 3.38855C220.229 4.189 220.816 5.09617 221.19 6.13674C221.563 7.17732 221.777 8.29795 221.777 9.49861C221.777 11.6331 221.27 13.3674 220.229 14.7015C219.188 16.0356 217.668 16.9428 215.667 17.3963L224.498 28.9227ZM208.409 13.3674H209.797C211.237 13.3674 212.331 13.0739 213.105 12.4603C213.879 11.8733 214.252 11.0195 214.252 9.89884C214.252 8.77821 213.879 7.9244 213.105 7.33741C212.331 6.75042 211.237 6.43024 209.797 6.43024H208.409V13.3674Z" fill="#FF61A9"/>
<path d="M7.3374 44.0778V72.2001H0.0266724V44.0778H7.3374Z" fill="#FF61A9"/>
<path d="M16.9427 44.0778H27.7488C29.6698 44.0778 31.4575 44.4514 33.1384 45.2251C34.8193 45.9989 36.2868 47.0128 37.5409 48.2935C38.7949 49.5742 39.7821 51.0684 40.5025 52.776C41.2229 54.4836 41.5964 56.2713 41.5964 58.139C41.5964 59.98 41.2496 61.741 40.5292 63.4486C39.8088 65.1562 38.8483 66.6504 37.5942 67.9311C36.3402 69.2118 34.8727 70.2524 33.1918 71.0261C31.5108 71.7999 29.6965 72.1734 27.7754 72.1734H16.9427V44.0778ZM24.2535 66.01H25.9344C27.2151 66.01 28.3357 65.8232 29.323 65.423C30.3102 65.0228 31.164 64.4892 31.831 63.7688C32.5247 63.075 33.0317 62.2479 33.4052 61.2874C33.7788 60.3268 33.9389 59.2863 33.9389 58.139C33.9389 57.0183 33.7521 55.9778 33.3785 55.0172C33.005 54.0567 32.4714 53.2029 31.8043 52.5092C31.1106 51.8155 30.2835 51.2551 29.2963 50.8549C28.3091 50.4547 27.1884 50.2679 25.9344 50.2679H24.2535V66.01Z" fill="#FF61A9"/>
<path d="M95.5197 44.0778V66.01H104.298V72.2001H88.2357V44.0778H95.5197Z" fill="#FF61A9"/>
<path d="M58.0589 9.01835C57.2852 7.20401 56.2179 5.65648 54.8305 4.29572C53.443 2.96165 51.8155 1.89439 49.8944 1.14731C47.9733 0.400227 45.8922 0 43.6242 0C41.3296 0 39.2485 0.373546 37.3274 1.14731C35.433 1.89439 33.7788 2.96165 32.418 4.29572C31.0573 5.6298 29.99 7.20401 29.2162 9.01835C28.4425 10.8327 28.0689 12.7538 28.0689 14.8616C28.0689 16.9428 28.4425 18.8905 29.2162 20.7048C29.99 22.5192 31.0573 24.0667 32.418 25.4275C33.7788 26.7615 35.433 27.8288 37.3274 28.5759C39.2218 29.323 41.3296 29.7232 43.6242 29.7232C45.8922 29.7232 47.9733 29.3496 49.8944 28.5759C51.8155 27.8288 53.443 26.7615 54.8305 25.4275C56.2179 24.0934 57.2852 22.5192 58.0589 20.7048C58.8327 18.8905 59.2062 16.9694 59.2062 14.8616C59.2062 12.7804 58.8327 10.8327 58.0589 9.01835ZM50.4814 17.8232L44.2112 23.8799C43.9177 24.1734 43.4375 24.1734 43.144 23.8799L36.8471 17.7966C36.7671 17.7165 34.5259 15.6887 34.5259 13.234C34.5259 10.2457 36.3402 8.48472 39.4086 8.48472C41.1962 8.48472 42.8772 9.89883 43.6776 10.6726C44.4781 9.87215 46.159 8.48472 47.9467 8.48472C50.9883 8.48472 52.8294 10.2724 52.8294 13.234C52.8294 15.662 50.5881 17.7165 50.4814 17.8232Z" fill="#FF3194"/>
<path d="M157.154 9.01835C156.38 7.20401 155.313 5.65648 153.926 4.29572C152.538 2.96165 150.91 1.89439 148.989 1.14731C147.068 0.400227 144.987 0 142.719 0C140.425 0 138.344 0.373546 136.422 1.14731C134.528 1.89439 132.874 2.96165 131.513 4.29572C130.152 5.6298 129.085 7.20401 128.311 9.01835C127.538 10.8327 127.164 12.7538 127.164 14.8616C127.164 16.9428 127.538 18.8905 128.311 20.7048C129.085 22.5192 130.152 24.0667 131.513 25.4275C132.874 26.7615 134.528 27.8288 136.422 28.5759C138.317 29.323 140.425 29.7232 142.719 29.7232C144.987 29.7232 147.068 29.3496 148.989 28.5759C150.91 27.8288 152.538 26.7615 153.926 25.4275C155.313 24.0934 156.38 22.5192 157.154 20.7048C157.928 18.8905 158.301 16.9694 158.301 14.8616C158.328 12.7804 157.928 10.8327 157.154 9.01835ZM149.603 17.8232L143.333 23.8799C143.039 24.1734 142.559 24.1734 142.266 23.8799L135.969 17.7966C135.889 17.7165 133.648 15.6887 133.648 13.234C133.648 10.2457 135.462 8.48472 138.53 8.48472C140.318 8.48472 141.999 9.89883 142.799 10.6726C143.6 9.87215 145.281 8.48472 147.068 8.48472C150.11 8.48472 151.951 10.2724 151.951 13.234C151.951 15.662 149.683 17.7165 149.603 17.8232Z" fill="#FF3194"/>
<path d="M78.6303 52.4825C77.8566 50.6681 76.7893 49.1206 75.4019 47.7599C74.0145 46.4258 72.3869 45.3585 70.4658 44.6115C68.5447 43.8644 66.4636 43.4641 64.1957 43.4641C61.9011 43.4641 59.8199 43.8377 57.8988 44.6115C56.0044 45.3585 54.3502 46.4258 52.9894 47.7599C51.6287 49.0939 50.5614 50.6681 49.7877 52.4825C49.0139 54.2968 48.6404 56.2179 48.6404 58.3257C48.6404 60.4336 49.0139 62.3546 49.7877 64.169C50.5614 65.9833 51.6287 67.5308 52.9894 68.8916C54.3502 70.2257 56.0044 71.2929 57.8988 72.04C59.7932 72.7871 61.9011 73.1873 64.1957 73.1873C66.4636 73.1873 68.5447 72.8138 70.4658 72.04C72.3869 71.2929 74.0145 70.2257 75.4019 68.8916C76.7893 67.5575 77.8566 65.9833 78.6303 64.169C79.4041 62.3546 79.7777 60.4336 79.7777 58.3257C79.7777 56.2179 79.4041 54.2701 78.6303 52.4825ZM71.0795 61.2607L64.8093 67.3174C64.5158 67.6109 64.0356 67.6109 63.7421 67.3174L57.4452 61.234C57.3652 61.154 55.124 59.1262 55.124 56.6715C55.124 53.6832 56.9383 51.9222 60.0067 51.9222C61.7943 51.9222 63.4753 53.3363 64.2757 54.1101C65.0762 53.3096 66.7571 51.9222 68.5447 51.9222C71.5864 51.9222 73.4275 53.7098 73.4275 56.6715C73.4275 59.1262 71.1595 61.1807 71.0795 61.2607Z" fill="#FF3194"/>
</g>
<defs>
<clipPath id="clip0_31_389">
<rect width="224.498" height="73.1873" fill="white"/>
</clipPath>
</defs>
</svg>
