<svg width="226" height="144" viewBox="0 0 226 144" fill="none" xmlns="http://www.w3.org/2000/svg">
<g clip-path="url(#clip0_1_39)">
<path d="M94.6556 40.209L85.237 27.8021L75.5783 44.5581L84.1964 49.174C87.1581 50.7482 91.0536 50.348 93.5616 48.1868C96.0964 46.0256 96.55 42.6904 94.6556 40.209Z" fill="#FF3194"/>
<path d="M4.71226 40.209C2.81788 42.6904 3.27146 46.0256 5.80621 48.1868C8.31427 50.348 12.2364 50.7749 15.1714 49.174L23.7895 44.5581L14.1041 27.8021L4.71226 40.209Z" fill="#FF3194"/>
<path d="M33.6884 35.3797L30.2998 18.4102C29.8996 16.4625 29.8729 14.5414 30.113 12.6203C28.3521 12.5937 26.511 12.8872 24.9368 13.4475C21.575 14.6748 18.9602 17.1295 17.7328 20.1979C16.5322 23.2663 16.8257 26.6281 18.5866 29.4564L26.6711 42.5837C28.2187 45.0917 31.1003 46.5058 34.1153 46.5058C35.4493 46.5058 36.8368 46.2123 38.0908 45.6253C38.5711 45.3852 38.998 45.0917 39.4249 44.7715C36.5166 42.3168 34.4354 39.0884 33.6884 35.3797Z" fill="#FF61A9"/>
<path d="M81.9552 20.1712C80.7545 17.1028 78.113 14.6748 74.7512 13.4208C73.177 12.8605 71.3359 12.5403 69.575 12.5937C69.8151 14.4881 69.7617 16.4358 69.3882 18.3835L65.9997 35.3797C65.2526 39.0884 63.1714 42.3168 60.2898 44.7715C60.7167 45.065 61.1169 45.3852 61.6239 45.6254C62.9046 46.239 64.2654 46.5058 65.5994 46.5058C68.5878 46.5058 71.496 45.0917 73.0436 42.5837L81.1281 29.4564C82.8624 26.6014 83.1825 23.2396 81.9552 20.1712Z" fill="#FF61A9"/>
<path d="M66.2131 17.423C67.0669 13.1006 65.7595 8.67148 62.5844 5.30962C59.436 1.94775 54.7667 0 49.8307 0C44.8946 0 40.2253 1.94775 37.0769 5.30962C33.9285 8.67148 32.5944 13.1006 33.4482 17.423L36.8368 34.3924C37.9574 39.9956 43.4271 44.0778 49.804 44.0778C56.1809 44.0778 61.6506 39.9956 62.7712 34.3924L66.2131 17.423ZM41.9063 24.4136C40.9457 24.4136 40.1453 23.6398 40.1453 22.6526C40.1453 21.6921 40.919 20.8916 41.9063 20.8916C42.8668 20.8916 43.6672 21.6654 43.6672 22.6526C43.6672 23.6398 42.8668 24.4136 41.9063 24.4136ZM53.2192 26.7882C52.3654 27.7221 51.0847 28.2557 49.7239 28.2557C48.4699 28.2557 47.2692 27.8021 46.4154 27.0017C45.9352 26.5481 45.7217 25.8544 46.3087 25.3741C46.7623 25.0006 47.4293 25.0539 47.8296 25.4808C48.2831 25.9878 48.9769 26.2546 49.7239 26.2546C50.471 26.2546 51.1647 25.9611 51.6183 25.4808C52.0185 25.0539 52.6856 25.0272 53.1392 25.3741C53.5661 25.7476 53.6194 26.388 53.2192 26.7882ZM57.4616 24.4136C56.501 24.4136 55.7006 23.6398 55.7006 22.6526C55.7006 21.6921 56.4744 20.8916 57.4616 20.8916C58.4221 20.8916 59.2225 21.6654 59.2225 22.6526C59.2225 23.6398 58.4221 24.4136 57.4616 24.4136Z" fill="#FC8DC5"/>
<path d="M0.683359 71.6131H11.5694C14.1575 71.6131 16.1319 72.2268 17.466 73.4808C18.8001 74.7349 19.4671 76.5225 19.4671 78.8438C19.4671 80.2579 19.2003 81.4319 18.6934 82.3658C18.1864 83.2996 17.4127 84.1001 16.3721 84.7404C17.4127 84.9272 18.2931 85.2474 19.0402 85.6476C19.7606 86.0478 20.3743 86.5548 20.8279 87.1684C21.2815 87.7554 21.6283 88.4491 21.8151 89.1695C22.0019 89.9166 22.1086 90.7171 22.1086 91.5442C22.1086 92.8516 21.8685 94.0256 21.4149 95.0395C20.9613 96.0534 20.3209 96.9072 19.4671 97.6009C18.64 98.2946 17.6261 98.8282 16.4254 99.1751C15.2248 99.522 13.8907 99.7087 12.3965 99.7087H0.656677V71.6131H0.683359ZM7.99409 82.6593H9.32816C11.6228 82.6593 12.7701 81.7521 12.7701 79.9377C12.7701 78.1234 11.6228 77.2162 9.32816 77.2162H7.99409V82.6593ZM7.99409 94.0523H9.59498C11.436 94.0523 12.7434 93.8121 13.5438 93.3318C14.3443 92.8516 14.7445 92.1045 14.7445 91.0639C14.7445 90.0233 14.3443 89.2496 13.5438 88.796C12.7434 88.3157 11.436 88.0756 9.59498 88.0756H7.99409V94.0523Z" fill="#FF61A9"/>
<path d="M68.2142 99.7354V71.6131H75.5249L89.0258 88.796V71.6131H96.3098V99.7354H89.0258L75.5249 82.5525V99.7354H68.2142Z" fill="#FF61A9"/>
<path d="M119.763 71.6131V91.1173C119.763 91.9444 119.709 92.6915 119.629 93.3852C119.549 94.0789 119.389 94.6659 119.203 95.1729C118.882 95.9733 118.429 96.6937 117.868 97.3608C117.308 98.0278 116.668 98.5881 115.921 99.0417C115.174 99.4953 114.347 99.8688 113.439 100.136C112.532 100.402 111.572 100.536 110.584 100.536C107.569 100.536 105.115 99.1484 103.247 96.4002L108.023 91.5175C108.156 92.3713 108.423 93.0384 108.85 93.5186C109.277 93.9989 109.784 94.2657 110.424 94.2657C111.785 94.2657 112.479 93.1718 112.479 91.0106V71.6131H119.763Z" fill="#FF61A9"/>
<path d="M174.94 71.6131V86.9016C174.94 87.7287 174.967 88.5559 175.047 89.4097C175.1 90.2635 175.287 91.0372 175.607 91.731C175.927 92.4247 176.408 92.985 177.075 93.4386C177.742 93.8655 178.702 94.0789 179.903 94.0789C181.13 94.0789 182.064 93.8655 182.731 93.4386C183.398 93.0117 183.878 92.4514 184.199 91.731C184.519 91.0372 184.706 90.2635 184.786 89.4097C184.839 88.5559 184.866 87.7021 184.866 86.9016V71.6131H192.15V87.9155C192.15 92.2913 191.136 95.4931 189.135 97.4942C187.134 99.4953 184.065 100.509 179.903 100.509C175.741 100.509 172.672 99.4953 170.644 97.4942C168.643 95.4931 167.629 92.2913 167.629 87.9155V71.6131H174.94Z" fill="#FF61A9"/>
<path d="M225.155 99.7354H216.056L209.092 88.9294V99.7354H201.782V71.6131H213.148C214.722 71.6131 216.083 71.8533 217.257 72.3068C218.431 72.7604 219.392 73.4008 220.139 74.2012C220.886 75.0017 221.473 75.9088 221.846 76.9494C222.22 77.99 222.433 79.1106 222.433 80.3113C222.433 82.4458 221.926 84.1801 220.886 85.5142C219.845 86.8483 218.324 87.7554 216.323 88.209L225.155 99.7354ZM209.066 84.1801H210.453C211.894 84.1801 212.988 83.8866 213.762 83.2729C214.536 82.6859 214.909 81.8321 214.909 80.7115C214.909 79.5909 214.536 78.7371 213.762 78.1501C212.988 77.5631 211.894 77.2429 210.453 77.2429H209.066V84.1801Z" fill="#FF61A9"/>
<path d="M7.99409 114.89V143.013H0.683361V114.89H7.99409Z" fill="#FF61A9"/>
<path d="M17.5994 114.89H28.4054C30.3265 114.89 32.1142 115.264 33.7951 116.038C35.476 116.812 36.9435 117.825 38.1975 119.106C39.4516 120.387 40.4388 121.881 41.1592 123.589C41.8796 125.296 42.2531 127.084 42.2531 128.952C42.2531 130.793 41.9063 132.554 41.1859 134.261C40.4655 135.969 39.5049 137.463 38.2509 138.744C36.9969 140.024 35.5294 141.065 33.8485 141.839C32.1675 142.613 30.3532 142.986 28.4321 142.986H17.5994V114.89ZM24.9102 136.823H26.5911C27.8718 136.823 28.9924 136.636 29.9796 136.236C30.9669 135.835 31.8207 135.302 32.4877 134.581C33.1814 133.888 33.6884 133.061 34.0619 132.1C34.4354 131.14 34.5955 130.099 34.5955 128.952C34.5955 127.831 34.4088 126.79 34.0352 125.83C33.6617 124.869 33.1281 124.016 32.461 123.322C31.7673 122.628 30.9402 122.068 29.953 121.668C28.9657 121.267 27.8451 121.081 26.5911 121.081H24.9102V136.823Z" fill="#FF61A9"/>
<path d="M96.1764 114.89V136.823H104.955V143.013H88.8924V114.89H96.1764Z" fill="#FF61A9"/>
<path d="M58.7156 79.831C57.9418 78.0167 56.8746 76.4692 55.4871 75.1084C54.0997 73.7743 52.4721 72.7071 50.5511 71.96C48.63 71.2129 46.5488 70.8127 44.2809 70.8127C41.9863 70.8127 39.9051 71.1862 37.9841 71.96C36.0897 72.7071 34.4354 73.7743 33.0747 75.1084C31.7139 76.4425 30.6467 78.0167 29.8729 79.831C29.0991 81.6454 28.7256 83.5664 28.7256 85.6743C28.7256 87.7554 29.0991 89.7032 29.8729 91.5175C30.6467 93.3319 31.7139 94.8794 33.0747 96.2401C34.4354 97.5742 36.0897 98.6415 37.9841 99.3886C39.8785 100.136 41.9863 100.536 44.2809 100.536C46.5488 100.536 48.63 100.162 50.5511 99.3886C52.4721 98.6415 54.0997 97.5742 55.4871 96.2401C56.8746 94.9061 57.9418 93.3319 58.7156 91.5175C59.4894 89.7032 59.8629 87.7821 59.8629 85.6743C59.8629 83.5931 59.4894 81.6454 58.7156 79.831ZM51.1381 88.6359L44.8679 94.6926C44.5744 94.9861 44.0941 94.9861 43.8006 94.6926L37.5038 88.6092C37.4238 88.5292 35.1825 86.5014 35.1825 84.0467C35.1825 81.0584 36.9969 79.2974 40.0652 79.2974C41.8529 79.2974 43.5338 80.7115 44.3343 81.4853C45.1347 80.6848 46.8157 79.2974 48.6033 79.2974C51.645 79.2974 53.486 81.0851 53.486 84.0467C53.486 86.4747 51.2448 88.5292 51.1381 88.6359Z" fill="#FF3194"/>
<path d="M157.811 79.831C157.037 78.0167 155.97 76.4692 154.582 75.1084C153.195 73.7743 151.567 72.7071 149.646 71.96C147.725 71.2129 145.644 70.8127 143.376 70.8127C141.081 70.8127 139 71.1862 137.079 71.96C135.185 72.7071 133.53 73.7743 132.17 75.1084C130.809 76.4425 129.742 78.0167 128.968 79.831C128.194 81.6454 127.821 83.5664 127.821 85.6743C127.821 87.7554 128.194 89.7032 128.968 91.5175C129.742 93.3319 130.809 94.8794 132.17 96.2401C133.53 97.5742 135.185 98.6415 137.079 99.3886C138.974 100.136 141.081 100.536 143.376 100.536C145.644 100.536 147.725 100.162 149.646 99.3886C151.567 98.6415 153.195 97.5742 154.582 96.2401C155.97 94.9061 157.037 93.3319 157.811 91.5175C158.584 89.7032 158.958 87.7821 158.958 85.6743C158.985 83.5931 158.584 81.6454 157.811 79.831ZM150.26 88.6359L143.99 94.6926C143.696 94.9861 143.216 94.9861 142.922 94.6926L136.626 88.6092C136.546 88.5292 134.304 86.5014 134.304 84.0467C134.304 81.0584 136.119 79.2974 139.187 79.2974C140.975 79.2974 142.656 80.7115 143.456 81.4853C144.256 80.6848 145.937 79.2974 147.725 79.2974C150.767 79.2974 152.608 81.0851 152.608 84.0467C152.608 86.4747 150.34 88.5292 150.26 88.6359Z" fill="#FF3194"/>
<path d="M79.287 123.295C78.5133 121.481 77.446 119.933 76.0586 118.573C74.6711 117.238 73.0436 116.171 71.1225 115.424C69.2014 114.677 67.1203 114.277 64.8523 114.277C62.5577 114.277 60.4766 114.65 58.5555 115.424C56.6611 116.171 55.0069 117.238 53.6461 118.573C52.2854 119.907 51.2181 121.481 50.4443 123.295C49.6706 125.11 49.297 127.031 49.297 129.138C49.297 131.246 49.6706 133.167 50.4443 134.982C51.2181 136.796 52.2854 138.344 53.6461 139.704C55.0069 141.038 56.6611 142.106 58.5555 142.853C60.4499 143.6 62.5577 144 64.8523 144C67.1203 144 69.2014 143.626 71.1225 142.853C73.0436 142.106 74.6711 141.038 76.0586 139.704C77.446 138.37 78.5133 136.796 79.287 134.982C80.0608 133.167 80.4343 131.246 80.4343 129.138C80.4343 127.031 80.0608 125.083 79.287 123.295ZM71.7362 132.073L65.466 138.13C65.1725 138.424 64.6923 138.424 64.3988 138.13L58.1019 132.047C58.0219 131.967 55.7806 129.939 55.7806 127.484C55.7806 124.496 57.595 122.735 60.6633 122.735C62.451 122.735 64.1319 124.149 64.9324 124.923C65.7328 124.122 67.4138 122.735 69.2014 122.735C72.2431 122.735 74.0841 124.523 74.0841 127.484C74.0841 129.939 71.8162 131.993 71.7362 132.073Z" fill="#FF3194"/>
</g>
<defs>
<clipPath id="clip0_1_39">
<rect width="224.498" height="144" fill="white" transform="translate(0.656677)"/>
</clipPath>
</defs>
</svg>
