<svg width="124" height="80" viewBox="0 0 124 80" fill="none" xmlns="http://www.w3.org/2000/svg">
<g clip-path="url(#clip0_40_470)">
<path d="M51.9197 22.3384L46.7174 15.4456L41.3825 24.7545L46.1426 27.3189C47.7785 28.1935 49.9301 27.9711 51.3154 26.7705C52.7155 25.5698 52.966 23.7169 51.9197 22.3384Z" fill="white"/>
<path d="M2.24008 22.3384C1.19373 23.7169 1.44426 25.5698 2.84431 26.7705C4.22962 27.9711 6.39601 28.2083 8.01712 27.3189L12.7773 24.7545L7.42762 15.4456L2.24008 22.3384Z" fill="white"/>
<path d="M18.2449 19.6554L16.3732 10.2279C16.1522 9.14582 16.1374 8.07856 16.2701 7.0113C15.2974 6.99648 14.2805 7.15954 13.411 7.47082C11.5541 8.15268 10.1098 9.5164 9.43193 11.2211C8.76875 12.9257 8.93086 14.7934 9.90352 16.3646L14.3689 23.6576C15.2237 25.051 16.8153 25.8366 18.4807 25.8366C19.2175 25.8366 19.9839 25.6735 20.6765 25.3474C20.9418 25.214 21.1776 25.051 21.4134 24.8731C19.807 23.5094 18.6575 21.7158 18.2449 19.6554Z" fill="white"/>
<path d="M44.9047 11.2062C44.2415 9.50155 42.7825 8.15266 40.9256 7.45597C40.0561 7.14469 39.0392 6.96681 38.0666 6.99646C38.1992 8.0489 38.1697 9.13098 37.9634 10.2131L36.0917 19.6553C35.6791 21.7158 34.5296 23.5093 32.938 24.8731C33.1738 25.0361 33.3948 25.214 33.6748 25.3474C34.3822 25.6883 35.1338 25.8366 35.8707 25.8366C37.5213 25.8366 39.1276 25.0509 39.9824 23.6576L44.4478 16.3646C45.4058 14.7786 45.5826 12.9109 44.9047 11.2062Z" fill="white"/>
<path d="M36.2097 9.67945C36.6812 7.27812 35.9591 4.81749 34.2054 2.94979C32.4664 1.08208 29.8873 0 27.1609 0C24.4345 0 21.8555 1.08208 20.1165 2.94979C18.3775 4.81749 17.6406 7.27812 18.1122 9.67945L19.9838 19.1069C20.6028 22.2198 23.624 24.4877 27.1462 24.4877C30.6684 24.4877 33.6896 22.2198 34.3085 19.1069L36.2097 9.67945ZM22.7839 13.5631C22.2534 13.5631 21.8113 13.1332 21.8113 12.5848C21.8113 12.0511 22.2387 11.6064 22.7839 11.6064C23.3145 11.6064 23.7566 12.0363 23.7566 12.5848C23.7566 13.1332 23.3145 13.5631 22.7839 13.5631ZM29.0326 14.8823C28.561 15.4012 27.8536 15.6976 27.102 15.6976C26.4093 15.6976 25.7461 15.4456 25.2745 15.0009C25.0093 14.7489 24.8914 14.3635 25.2156 14.0967C25.4661 13.8892 25.8346 13.9188 26.0556 14.156C26.3062 14.4377 26.6893 14.5859 27.102 14.5859C27.5146 14.5859 27.8978 14.4228 28.1483 14.156C28.3694 13.9188 28.7378 13.904 28.9884 14.0967C29.2242 14.3042 29.2536 14.66 29.0326 14.8823ZM31.3758 13.5631C30.8453 13.5631 30.4031 13.1332 30.4031 12.5848C30.4031 12.0511 30.8305 11.6064 31.3758 11.6064C31.9063 11.6064 32.3485 12.0363 32.3485 12.5848C32.3485 13.1332 31.9063 13.5631 31.3758 13.5631Z" fill="white"/>
<path d="M0.0147373 39.7851H6.02757C7.4571 39.7851 8.54766 40.126 9.28453 40.8227C10.0214 41.5194 10.3898 42.5125 10.3898 43.8021C10.3898 44.5877 10.2425 45.2399 9.96244 45.7588C9.68243 46.2776 9.25505 46.7223 8.68029 47.078C9.25505 47.1818 9.74138 47.3596 10.154 47.582C10.5519 47.8043 10.8909 48.086 11.1414 48.4269C11.392 48.753 11.5836 49.1384 11.6867 49.5386C11.7899 49.9537 11.8488 50.3984 11.8488 50.8579C11.8488 51.5842 11.7162 52.2364 11.4657 52.7997C11.2151 53.363 10.8614 53.8373 10.3898 54.2227C9.93297 54.6081 9.37295 54.9046 8.70977 55.0973C8.04659 55.29 7.30972 55.3937 6.48443 55.3937H0V39.7851H0.0147373ZM4.05277 45.9218H4.78964C6.05705 45.9218 6.69075 45.4178 6.69075 44.4099C6.69075 43.4019 6.05705 42.8979 4.78964 42.8979H4.05277V45.9218ZM4.05277 52.2513H4.93701C5.95389 52.2513 6.67602 52.1178 7.11814 51.851C7.56026 51.5842 7.78132 51.1692 7.78132 50.5911C7.78132 50.013 7.56026 49.5831 7.11814 49.3311C6.67602 49.0643 5.95389 48.9309 4.93701 48.9309H4.05277V52.2513Z" fill="white"/>
<path d="M37.3149 55.4086V39.7851H41.353L48.8101 49.3311V39.7851H52.8334V55.4086H48.8101L41.353 45.8625V55.4086H37.3149Z" fill="white"/>
<path d="M65.7875 39.7851V50.6207C65.7875 51.0802 65.758 51.4953 65.7138 51.8807C65.6696 52.2661 65.5812 52.5922 65.478 52.8738C65.3012 53.3185 65.0506 53.7187 64.7411 54.0893C64.4316 54.4599 64.078 54.7712 63.6653 55.0232C63.2527 55.2752 62.7958 55.4827 62.2947 55.6309C61.7937 55.7791 61.2631 55.8533 60.7178 55.8533C59.0525 55.8533 57.6967 55.0825 56.6651 53.5557L59.3031 50.8431C59.3767 51.3174 59.5241 51.688 59.7599 51.9548C59.9957 52.2216 60.2757 52.3698 60.6294 52.3698C61.381 52.3698 61.7642 51.7621 61.7642 50.5614V39.7851H65.7875Z" fill="white"/>
<path d="M96.2643 39.7851V48.2787C96.2643 48.7382 96.2791 49.1977 96.3233 49.672C96.3528 50.1464 96.4559 50.5762 96.6328 50.9616C96.8096 51.347 97.0749 51.6583 97.4433 51.9103C97.8118 52.1475 98.3423 52.2661 99.0055 52.2661C99.6834 52.2661 100.199 52.1475 100.568 51.9103C100.936 51.6732 101.201 51.3619 101.378 50.9616C101.555 50.5762 101.658 50.1464 101.702 49.672C101.732 49.1977 101.747 48.7234 101.747 48.2787V39.7851H105.77V48.8419C105.77 51.2729 105.21 53.0517 104.105 54.1634C102.999 55.2752 101.305 55.8384 99.0055 55.8384C96.7065 55.8384 95.0117 55.2752 93.8916 54.1634C92.7863 53.0517 92.2263 51.2729 92.2263 48.8419V39.7851H96.2643Z" fill="white"/>
<path d="M124 55.4086H118.975L115.128 49.4052V55.4086H111.09V39.7851H117.368C118.238 39.7851 118.989 39.9185 119.638 40.1705C120.286 40.4225 120.817 40.7782 121.229 41.2229C121.642 41.6676 121.966 42.1716 122.173 42.7497C122.379 43.3278 122.497 43.9503 122.497 44.6174C122.497 45.8032 122.217 46.7667 121.642 47.5079C121.067 48.249 120.227 48.753 119.122 49.005L124 55.4086ZM115.113 46.7667H115.88C116.676 46.7667 117.28 46.6037 117.707 46.2627C118.135 45.9366 118.341 45.4623 118.341 44.8397C118.341 44.2172 118.135 43.7428 117.707 43.4167C117.28 43.0906 116.676 42.9127 115.88 42.9127H115.113V46.7667Z" fill="white"/>
<path d="M4.05265 63.8281V79.4516H0.0146179V63.8281H4.05265Z" fill="white"/>
<path d="M9.35822 63.8281H15.3268C16.3879 63.8281 17.3753 64.0356 18.3038 64.4655C19.2322 64.8953 20.0428 65.4586 20.7354 66.1701C21.4281 66.8816 21.9734 67.7117 22.3713 68.6604C22.7692 69.6091 22.9755 70.6022 22.9755 71.6398C22.9755 72.6626 22.7839 73.6409 22.386 74.5896C21.9881 75.5383 21.4576 76.3684 20.7649 77.0799C20.0723 77.7914 19.2617 78.3695 18.3333 78.7993C17.4048 79.2292 16.4027 79.4367 15.3416 79.4367H9.35822V63.8281ZM13.3962 76.0126H14.3247C15.0321 76.0126 15.6511 75.9088 16.1963 75.6865C16.7416 75.4642 17.2132 75.1677 17.5817 74.7675C17.9648 74.3821 18.2448 73.9226 18.4512 73.3889C18.6575 72.8553 18.7459 72.2772 18.7459 71.6398C18.7459 71.0172 18.6427 70.4391 18.4364 69.9055C18.2301 69.3719 17.9353 68.8975 17.5669 68.5121C17.1837 68.1267 16.7269 67.8155 16.1816 67.5931C15.6363 67.3708 15.0174 67.267 14.3247 67.267H13.3962V76.0126Z" fill="white"/>
<path d="M52.7597 63.8281V76.0126H57.6083V79.4516H48.7364V63.8281H52.7597Z" fill="white"/>
<path d="M32.0685 44.3506C31.6411 43.3426 31.0516 42.4829 30.2852 41.7269C29.5189 40.9858 28.6199 40.3928 27.5588 39.9778C26.4977 39.5627 25.3482 39.3404 24.0956 39.3404C22.8282 39.3404 21.6786 39.5479 20.6175 39.9778C19.5712 40.3928 18.6575 40.9858 17.9059 41.7269C17.1543 42.4681 16.5648 43.3426 16.1374 44.3506C15.71 45.3586 15.5037 46.4258 15.5037 47.5968C15.5037 48.753 15.71 49.8351 16.1374 50.8431C16.5648 51.851 17.1543 52.7108 17.9059 53.4668C18.6575 54.2079 19.5712 54.8008 20.6175 55.2159C21.6639 55.6309 22.8282 55.8533 24.0956 55.8533C25.3482 55.8533 26.4977 55.6457 27.5588 55.2159C28.6199 54.8008 29.5189 54.2079 30.2852 53.4668C31.0516 52.7256 31.6411 51.851 32.0685 50.8431C32.4958 49.8351 32.7022 48.7679 32.7022 47.5968C32.7022 46.4406 32.4958 45.3586 32.0685 44.3506ZM27.8831 49.2422L24.4198 52.607C24.2577 52.7701 23.9924 52.7701 23.8303 52.607L20.3523 49.2274C20.3081 49.1829 19.0701 48.0563 19.0701 46.6926C19.0701 45.0324 20.0723 44.0541 21.7671 44.0541C22.7545 44.0541 23.6829 44.8397 24.125 45.2696C24.5672 44.8249 25.4956 44.0541 26.483 44.0541C28.1631 44.0541 29.1799 45.0473 29.1799 46.6926C29.1799 48.0415 27.942 49.1829 27.8831 49.2422Z" fill="white"/>
<path d="M86.8029 44.3506C86.3755 43.3426 85.7861 42.4829 85.0197 41.7269C84.2534 40.9858 83.3544 40.3928 82.2933 39.9778C81.2322 39.5627 80.0827 39.3404 78.83 39.3404C77.5626 39.3404 76.4131 39.5479 75.352 39.9778C74.3057 40.3928 73.3919 40.9858 72.6403 41.7269C71.8887 42.4681 71.2992 43.3426 70.8719 44.3506C70.4445 45.3586 70.2382 46.4258 70.2382 47.5968C70.2382 48.753 70.4445 49.8351 70.8719 50.8431C71.2992 51.851 71.8887 52.7108 72.6403 53.4668C73.3919 54.2079 74.3057 54.8008 75.352 55.2159C76.3984 55.6309 77.5626 55.8533 78.83 55.8533C80.0827 55.8533 81.2322 55.6457 82.2933 55.2159C83.3544 54.8008 84.2534 54.2079 85.0197 53.4668C85.7861 52.7256 86.3755 51.851 86.8029 50.8431C87.2303 49.8351 87.4366 48.7679 87.4366 47.5968C87.4514 46.4406 87.2303 45.3586 86.8029 44.3506ZM82.6323 49.2422L79.169 52.607C79.0069 52.7701 78.7416 52.7701 78.5795 52.607L75.1015 49.2274C75.0573 49.1829 73.8193 48.0563 73.8193 46.6926C73.8193 45.0324 74.8215 44.0541 76.5163 44.0541C77.5037 44.0541 78.4321 44.8397 78.8742 45.2696C79.3164 44.8249 80.2448 44.0541 81.2322 44.0541C82.9123 44.0541 83.9291 45.0473 83.9291 46.6926C83.9291 48.0415 82.6765 49.1829 82.6323 49.2422Z" fill="white"/>
<path d="M43.431 68.4973C43.0036 67.4893 42.4141 66.6296 41.6477 65.8736C40.8814 65.1325 39.9824 64.5396 38.9213 64.1245C37.8602 63.7095 36.7107 63.4871 35.4581 63.4871C34.1906 63.4871 33.0411 63.6946 31.98 64.1245C30.9337 64.5396 30.02 65.1325 29.2684 65.8736C28.5168 66.6148 27.9273 67.4893 27.4999 68.4973C27.0725 69.5053 26.8662 70.5725 26.8662 71.7436C26.8662 72.9146 27.0725 73.9818 27.4999 74.9898C27.9273 75.9978 28.5168 76.8575 29.2684 77.6135C30.02 78.3546 30.9337 78.9476 31.98 79.3626C33.0264 79.7777 34.1906 80 35.4581 80C36.7107 80 37.8602 79.7925 38.9213 79.3626C39.9824 78.9476 40.8814 78.3546 41.6477 77.6135C42.4141 76.8723 43.0036 75.9978 43.431 74.9898C43.8583 73.9818 44.0647 72.9146 44.0647 71.7436C44.0647 70.5725 43.8583 69.4905 43.431 68.4973ZM39.2603 73.3741L35.797 76.7389C35.6349 76.902 35.3696 76.902 35.2075 76.7389L31.7295 73.3593C31.6853 73.3148 30.4474 72.1883 30.4474 70.8245C30.4474 69.1644 31.4495 68.186 33.1443 68.186C34.1317 68.186 35.0601 68.9717 35.5023 69.4015C35.9444 68.9568 36.8728 68.186 37.8602 68.186C39.5403 68.186 40.5572 69.1792 40.5572 70.8245C40.5572 72.1883 39.3045 73.3296 39.2603 73.3741Z" fill="white"/>
</g>
<defs>
<clipPath id="clip0_40_470">
<rect width="124" height="80" fill="white"/>
</clipPath>
</defs>
</svg>
