<svg width="81" height="44" viewBox="0 0 81 44" fill="none" xmlns="http://www.w3.org/2000/svg">
<g clip-path="url(#clip0_1_71)">
<path d="M79.9498 35.2846L71.6847 24.3972L63.2089 39.1011L70.7716 43.1516C73.3705 44.5331 76.7889 44.1818 78.9898 42.2853C81.2141 40.3888 81.6122 37.4621 79.9498 35.2846Z" fill="#FF3194"/>
<path d="M1.02185 35.2846C-0.640526 37.4621 -0.242491 40.3888 1.98182 42.2853C4.18272 44.1818 7.62455 44.5565 10.2001 43.1516L17.7627 39.1011L9.26351 24.3972L1.02185 35.2846Z" fill="#FF3194"/>
<path d="M26.4492 31.0467L23.4757 16.1555C23.1245 14.4463 23.1011 12.7605 23.3118 11.0747C21.7665 11.0513 20.1509 11.3089 18.7695 11.8006C15.8194 12.8776 13.5248 15.0317 12.4478 17.7242C11.3942 20.4168 11.6517 23.367 13.197 25.8488L20.2914 37.3684C21.6494 39.5693 24.1781 40.8102 26.8239 40.8102C27.9945 40.8102 29.2121 40.5527 30.3125 40.0376C30.734 39.8269 31.1086 39.5693 31.4832 39.2884C28.9311 37.1343 27.1048 34.3012 26.4492 31.0467Z" fill="#FF61A9"/>
<path d="M68.8048 17.7008C67.7512 15.0082 65.4332 12.8776 62.4831 11.7771C61.1016 11.2855 59.4861 11.0045 57.9408 11.0513C58.1515 12.7137 58.1047 14.4229 57.7769 16.1321L54.8033 31.0467C54.1478 34.3012 52.3215 37.1343 49.7928 39.2884C50.1674 39.5459 50.5186 39.8269 50.9635 40.0376C52.0873 40.5761 53.2814 40.8103 54.4521 40.8103C57.0745 40.8103 59.6266 39.5693 60.9846 37.3684L68.079 25.8488C69.6009 23.3436 69.8818 20.3934 68.8048 17.7008Z" fill="#FF61A9"/>
<path d="M54.9907 15.2892C55.7399 11.4962 54.5926 7.60949 51.8064 4.65935C49.0436 1.70921 44.9462 0 40.6146 0C36.283 0 32.1856 1.70921 29.4228 4.65935C26.66 7.60949 25.4893 11.4962 26.2385 15.2892L29.2121 30.1804C30.1955 35.0973 34.9953 38.6796 40.5912 38.6796C46.1871 38.6796 50.9869 35.0973 51.9703 30.1804L54.9907 15.2892ZM33.6607 21.4236C32.8178 21.4236 32.1154 20.7446 32.1154 19.8783C32.1154 19.0354 32.7944 18.333 33.6607 18.333C34.5036 18.333 35.206 19.012 35.206 19.8783C35.206 20.7446 34.5036 21.4236 33.6607 21.4236ZM43.5882 23.5075C42.8389 24.3269 41.715 24.7952 40.5209 24.7952C39.4205 24.7952 38.3669 24.3972 37.6176 23.6948C37.1962 23.2967 37.0089 22.688 37.524 22.2665C37.922 21.9387 38.5074 21.9856 38.8586 22.3602C39.2566 22.805 39.8654 23.0392 40.5209 23.0392C41.1765 23.0392 41.7853 22.7816 42.1833 22.3602C42.5345 21.9856 43.1199 21.9621 43.5179 22.2665C43.8925 22.5943 43.9394 23.1562 43.5882 23.5075ZM47.3109 21.4236C46.4681 21.4236 45.7656 20.7446 45.7656 19.8783C45.7656 19.0354 46.4446 18.333 47.3109 18.333C48.1538 18.333 48.8563 19.012 48.8563 19.8783C48.8563 20.7446 48.1538 21.4236 47.3109 21.4236Z" fill="#FC8DC5"/>
</g>
<defs>
<clipPath id="clip0_1_71">
<rect width="80.9716" height="44" fill="white"/>
</clipPath>
</defs>
</svg>
